<svg xmlns="http://www.w3.org/2000/svg" xmlns:xlink="http://www.w3.org/1999/xlink" viewBox="0 0 186.94 330.16"><defs><style>.cls-1{fill:url(#linear-gradient);}.cls-2{fill:url(#linear-gradient-2);}.cls-3{fill:url(#linear-gradient-3);}.cls-4{font-size:56.39px;fill:#e0765e;}.cls-4,.cls-6{font-family:Montserrat-Regular, Montserrat;}.cls-5{letter-spacing:-0.01em;}.cls-6{font-size:21.55px;fill:#640720;stroke:#640720;stroke-miterlimit:10;letter-spacing:0.73em;}.cls-7{letter-spacing:0.72em;}</style><linearGradient id="linear-gradient" x1="86.78" y1="12.51" x2="86.78" y2="254.68" gradientUnits="userSpaceOnUse"><stop offset="0.01" stop-color="#5ea3cc"></stop><stop offset="0.5" stop-color="#2a70b2"></stop><stop offset="1" stop-color="#1c3461"></stop></linearGradient><linearGradient id="linear-gradient-2" x1="86.8" y1="12.51" x2="86.8" y2="254.68" xlink:href="#linear-gradient"></linearGradient><linearGradient id="linear-gradient-3" x1="88.58" y1="12.51" x2="88.58" y2="254.68" xlink:href="#linear-gradient"></linearGradient></defs><title>seyre-global-logo-2023</title><g id="Layer_2" data-name="Layer 2"><g id="Layer_2-2" data-name="Layer 2"><path class="cls-1" d="M173,0h0C126.85,19.75,86.78.52,86.78.52S46.71,19.76.57,0V95.73H17.63l16.17-.18.54-7.36.54-7.37H14.94V18s35.59,11.63,71.84-4c36.2,15.56,71.75,4,71.84,4V66.45H173V0Z"></path><path class="cls-2" d="M100.7,37.53c8.62,4,12.39,7.91,16.16,16.89a33.77,33.77,0,0,1,.72,24.07c-2.69,7.18-12,16.34-18.14,17.6-2.69.72-5,1.61-5,2.15,0,.9,14.56,18.69,28.38,35,2.51,3,2,3.23-7,3.23h-9.87L88.13,115c-9.88-12-18.15-23.71-18.5-26-.54-4.31-.18-4.49,10.23-4.49,13.47,0,19-2.52,22.64-10.24,2.33-5,2.51-7.18.89-12.22-3.23-9.52-7.54-11.67-24.6-11.67H63.88V136.5H49.51V34.13h22.1c17.42,0,23.34.71,29.09,3.4Z"></path><path class="cls-3" d="M172.9,96.45c-2.15,33.05-8.08,42.75-53.16,87.65L87.23,216.43l-26.4-26.05C46.1,176,30.3,159.67,25.26,154.11c-9.33-10.78-19.39-28.74-21.55-38.8-1.08-5.57-1.08-5.75,5.39-5.75,4.49,0,6.64.9,7.37,3,6.28,18.5,11.67,25.87,40.94,55.51l29.82,30.16L116,169.55c32.14-32,40.23-44.18,42.39-64.12L159.61,95l-21,.54c-11.5.36-20.84.54-20.84.36,0,0,3-3.41,6.83-7.54L131.23,81H152.6L174,80.82Z"></path><text class="cls-4" transform="translate(0.5 287.44)">S<tspan class="cls-5" x="34.68" y="0">e</tspan><tspan x="68.17" y="0">yRe</tspan></text><text class="cls-6" transform="translate(0.5 324.01)">G<tspan class="cls-7" x="32.39" y="0">L</tspan><tspan x="60.52" y="0">OBAL</tspan></text></g></g></svg>